<svg xmlns="http://www.w3.org/2000/svg" viewBox="0 0 70.74 74"><defs><style>.cls-1{fill:#002d95;}.cls-2{fill:#58fffe;}.cls-3{fill:#197de5;}</style></defs><title>Asset 2</title><g id="Layer_2" data-name="Layer 2"><g id="Layer_1-2" data-name="Layer 1"><polygon class="cls-1" points="37.84 31.63 68.71 33.55 70.74 0 39.81 1.32 37.84 31.63"/><polygon class="cls-2" points="2.31 29.43 33.19 31.35 35.16 1.52 4.23 2.84 2.31 29.43"/><polygon class="cls-2" points="35.45 68.19 66.26 74 68.29 40.45 37.43 37.88 35.45 68.19"/><polygon class="cls-1" points="0 61.5 30.81 67.31 32.78 37.49 1.92 34.91 0 61.5"/><polygon class="cls-2" points="12.2 61.43 28.61 64.38 28.88 60.32 12.46 57.61 12.2 61.43"/><polygon class="cls-2" points="45.97 29.83 62.42 30.72 62.69 26.21 46.24 25.56 45.97 29.83"/><polygon class="cls-2" points="3.88 59.93 10.33 61.09 10.59 57.3 4.14 56.23 3.88 59.93"/><polygon class="cls-3" points="6.02 9.05 32.33 8.58 32.64 3.84 6.33 4.76 6.02 9.05"/><polygon class="cls-3" points="44.66 50.33 59.54 52.16 59.95 45.62 45.06 44.09 44.66 50.33"/></g></g></svg>