<svg xmlns="http://www.w3.org/2000/svg" viewBox="0 0 39.97 27.7"><defs><style>.cls-1{fill:#58fffe;}</style></defs><title>Asset 9</title><g id="Layer_2" data-name="Layer 2"><g id="Layer_1-2" data-name="Layer 1"><path class="cls-1" d="M0,11.32V0L40,12.87V27.7ZM1,1.37v9.28L39,26.21V13.6Z"/><path class="cls-1" d="M6.8,11.72a.51.51,0,0,0,.28-.09.5.5,0,0,0,.13-.69L4.09,6.42,7.46,4.83A.5.5,0,0,0,7,3.93L2.6,6,6.38,11.5A.5.5,0,0,0,6.8,11.72Z"/><path class="cls-1" d="M11.38,13.9a.47.47,0,0,0,.27-.08.5.5,0,0,0,.15-.69l-3-4.66L12,7a.5.5,0,0,0-.41-.91L7.35,8,11,13.67A.48.48,0,0,0,11.38,13.9Z"/></g></g></svg>