<svg xmlns="http://www.w3.org/2000/svg" xmlns:xlink="http://www.w3.org/1999/xlink" viewBox="0 0 73.73 95.89"><defs><style>.cls-1{isolation:isolate;}.cls-2{mix-blend-mode:color-dodge;fill:url(#_ÂÁ_Ï_ÌÌ_È_ËÂÌÚ_13);}.cls-3,.cls-4{fill:#58fffe;}.cls-3{opacity:0.5;mix-blend-mode:soft-light;}.cls-5{fill:#a92fe5;}.cls-6{fill:#fff;}</style><radialGradient id="_ÂÁ_Ï_ÌÌ_È_ËÂÌÚ_13" cx="1115.05" cy="47.94" r="42.09" gradientTransform="matrix(-1, 0, 0, 1, 1152, 0)" gradientUnits="userSpaceOnUse"><stop offset="0"/><stop offset="1" stop-color="#02b3c4"/></radialGradient></defs><title>Asset 5</title><g class="cls-1"><g id="Layer_2" data-name="Layer 2"><g id="Layer_1-2" data-name="Layer 1"><polygon class="cls-2" points="72.81 0.43 5.08 38.92 1.09 95.44 68.07 82.26 72.81 0.43"/><polygon class="cls-3" points="70.09 3.49 69.51 15.32 5.91 46.2 6.57 38.92 70.09 3.49"/><polygon class="cls-4" points="72.81 0.43 73.73 1.05 70.09 83.36 68.07 82.26 72.81 0.43"/><polygon class="cls-4" points="6.36 41.61 69.86 8.04 69.97 6.02 6.46 40.16 6.36 41.61"/><polygon class="cls-4" points="4.75 65.36 68.1 41.12 68.21 39.09 4.85 63.91 4.75 65.36"/><polygon class="cls-4" points="5.73 50.94 69.17 21.03 69.28 19.01 5.83 49.48 5.73 50.94"/><polygon class="cls-4" points="51.44 24.03 69.49 15.04 69.59 13.02 51.54 22.17 51.44 24.03"/><polygon class="cls-4" points="63.26 38.12 68.37 36.05 68.48 34.02 63.37 36.14 63.26 38.12"/><polygon class="cls-4" points="24.89 53.84 30 51.78 30.1 50.1 25 52.21 24.89 53.84"/><polygon class="cls-4" points="22.53 38.42 50.86 24.32 50.97 22.46 22.63 36.82 22.53 38.42"/><polygon class="cls-4" points="24.06 50.4 52.35 38.36 52.46 36.48 24.16 48.78 24.06 50.4"/><polygon class="cls-4" points="32.82 50.45 61.1 39 61.21 37.03 32.92 48.75 32.82 50.45"/><polygon class="cls-4" points="5.51 54.18 33.82 41.4 33.92 39.69 5.61 52.73 5.51 54.18"/><polygon class="cls-4" points="4.48 69.4 67.8 46.74 67.91 44.72 4.58 67.95 4.48 69.4"/><polygon class="cls-4" points="2.88 93.15 66.04 79.82 66.15 77.79 2.97 91.7 2.88 93.15"/><polygon class="cls-4" points="3.85 78.73 67.11 59.73 67.22 57.71 3.95 77.28 3.85 78.73"/><polygon class="cls-4" points="49.43 59.63 67.43 53.75 67.54 51.72 49.53 57.77 49.43 59.63"/><polygon class="cls-4" points="61.22 75.94 66.31 74.75 66.42 72.73 61.32 73.96 61.22 75.94"/><polygon class="cls-4" points="22.96 85.06 28.05 83.88 28.15 82.2 23.06 83.43 22.96 85.06"/><polygon class="cls-4" points="20.61 69.05 48.85 59.82 48.96 57.96 20.71 67.45 20.61 69.05"/><polygon class="cls-4" points="22.13 81.43 50.34 74.27 50.45 72.39 22.23 79.81 22.13 81.43"/><polygon class="cls-4" points="30.86 83.03 59.06 76.45 59.17 74.48 30.96 81.33 30.86 83.03"/><polygon class="cls-4" points="3.63 81.97 31.86 74.06 31.96 72.35 3.73 80.52 3.63 81.97"/><polygon class="cls-4" points="2.12 95.89 5.56 39.22 73.06 0.87 72.57 0 4.6 38.62 1.13 95.83 2.12 95.89"/><polygon class="cls-5" points="0 49.37 10.71 43.69 11.5 29.21 0.44 37.93 0 49.37"/><path class="cls-6" d="M2.35,45.65h0c.28.16.76-.12,1.07-.62L9,35.31c.32-.59.35-1.21.07-1.37H9c-.28-.15-.76.21-1.08.8L2.4,44.46C2.1,45,2.07,45.49,2.35,45.65Z"/><path class="cls-6" d="M2.65,38.64h0c-.31.54-.33,1.07,0,1.19L7.55,42.6c.28.2.75-.07,1.07-.62h0c.31-.55.34-1.17.07-1.36l-5-2.78C3.45,37.72,3,38.08,2.65,38.64Z"/></g></g></g></svg>