<svg xmlns="http://www.w3.org/2000/svg" viewBox="0 0 12.44 17.82"><defs><style>.cls-1{fill:#a92fe5;}.cls-2{fill:#fff;}</style></defs><title>Asset 6</title><g id="Layer_2" data-name="Layer 2"><g id="Layer_1-2" data-name="Layer 1"><polygon class="cls-1" points="0 13.32 11.53 17.82 12.44 1.95 1.19 0 0 13.32"/><path class="cls-2" d="M2.65,11.36h0c.29.49.79.66,1.14.39l6-5.48a1.35,1.35,0,0,0,.09-1.52h0c-.28-.48-.78-.59-1.11-.24L2.77,10A1.09,1.09,0,0,0,2.65,11.36Z"/><path class="cls-2" d="M3.31,3.31h0A1.12,1.12,0,0,0,3.2,4.68l5,8.59c.28.52.79.7,1.13.39h0a1.3,1.3,0,0,0,.09-1.51l-5-8.59A.71.71,0,0,0,3.31,3.31Z"/></g></g></svg>