<svg xmlns="http://www.w3.org/2000/svg" xmlns:xlink="http://www.w3.org/1999/xlink" viewBox="0 0 114.89 45.8"><defs><style>.cls-1{isolation:isolate;}.cls-2{fill:#a92fe5;}.cls-3{fill:#687de5;opacity:0.88;mix-blend-mode:multiply;}.cls-4{fill:#ac9cf0;}.cls-5{fill:#d4bdf0;}.cls-6{fill:#58fffe;}.cls-7{mix-blend-mode:color-dodge;fill:url(#_ÂÁ_Ï_ÌÌ_È_ËÂÌÚ_14);}.cls-8{fill:#29bbfe;}</style><radialGradient id="_ÂÁ_Ï_ÌÌ_È_ËÂÌÚ_14" cx="861.39" cy="20.71" r="14.59" gradientTransform="matrix(0, -1.14, -0.56, 0, 28.3, 1005.26)" gradientUnits="userSpaceOnUse"><stop offset="0" stop-color="#02689b"/><stop offset="1"/></radialGradient></defs><title>Asset 10</title><g class="cls-1"><g id="Layer_2" data-name="Layer 2"><g id="Layer_1-2" data-name="Layer 1"><path class="cls-2" d="M104.31,9,70,5.73a7.61,7.61,0,0,0-8.31,7.18h0A7.59,7.59,0,0,0,68,20.81l34.11,6A7.61,7.61,0,0,0,111,19.92l.22-2.8A7.62,7.62,0,0,0,104.31,9Z"/><path class="cls-3" d="M96.39,6.37,63,3.24a8.1,8.1,0,0,0-8.84,7.63h0A8.09,8.09,0,0,0,61,19.29l33.21,5.13a8.08,8.08,0,0,0,9.3-7.37l.16-2A8.1,8.1,0,0,0,96.39,6.37Z"/><path class="cls-4" d="M90.63,2.21,57,0a8,8,0,0,0-8.51,7.56h0a8,8,0,0,0,6.95,8.36l33.43,4.35a8,8,0,0,0,9-7.32l.17-2.16A8,8,0,0,0,90.63,2.21Z"/><path class="cls-5" d="M87.36,2,55.85.08c-4.12-.19-7.57,3.3-7.68,7.76h0A7.85,7.85,0,0,0,54.81,16l31,3.57c4.22.49,7.93-2.94,8.15-7.52l.1-2.16C94.25,5.47,91.48,2.18,87.36,2Z"/><path class="cls-6" d="M6.6,42.23,8.21,22.79l18.41,1.87L25.28,45.8ZM9.13,23.88,7.67,41.42,24.36,44.6l1.2-19Z"/><polygon class="cls-6" points="19.23 27.52 18.23 40.74 11.39 33.34 19.23 27.52"/><ellipse class="cls-7" cx="16.61" cy="23.92" rx="8.23" ry="16.62" transform="translate(-7.86 39.72) rotate(-88.06)"/><path class="cls-6" d="M111.52,19.87a1.73,1.73,0,1,0,3.36.18,1.73,1.73,0,1,0-3.36-.18Z"/><polygon class="cls-8" points="15.1 23.98 16.3 5.49 48.15 8.09 48.19 7.59 15.83 4.95 14.6 23.95 15.1 23.98"/><path class="cls-6" d="M13.07,23a1.94,1.94,0,0,0,1.57,2.19,1.93,1.93,0,0,0,1.79-2A1.93,1.93,0,0,0,14.86,21,1.93,1.93,0,0,0,13.07,23Z"/><path class="cls-6" d="M45.37,7.67A1.94,1.94,0,0,0,47,9.86a1.93,1.93,0,0,0,1.78-2,1.93,1.93,0,0,0-1.57-2.19A1.93,1.93,0,0,0,45.37,7.67Z"/></g></g></g></svg>