<svg xmlns="http://www.w3.org/2000/svg" xmlns:xlink="http://www.w3.org/1999/xlink" viewBox="0 0 280.88 330.04"><defs><style>.cls-1{isolation:isolate;}.cls-2{fill:#0031b3;}.cls-3{fill:#6fcef6;}.cls-4{fill:#318fe8;}.cls-5{fill:#001b8d;}.cls-6{fill:#00379f;}.cls-7,.cls-8{fill:#197de5;}.cls-8{opacity:0.88;mix-blend-mode:multiply;}.cls-9{fill:#17a8ed;}.cls-10{fill:#58fffe;}.cls-11,.cls-12,.cls-15,.cls-16{mix-blend-mode:color-dodge;}.cls-11{fill:url(#_ÂÁ_Ï_ÌÌ_È_ËÂÌÚ_14);}.cls-12{fill:url(#_ÂÁ_Ï_ÌÌ_È_ËÂÌÚ_14-2);}.cls-13,.cls-14{mix-blend-mode:screen;}.cls-13{fill:url(#_ÂÁ_Ï_ÌÌ_È_ËÂÌÚ_143);}.cls-14{fill:url(#_ÂÁ_Ï_ÌÌ_È_ËÂÌÚ_104);}.cls-15{fill:url(#_ÂÁ_Ï_ÌÌ_È_ËÂÌÚ_14-3);}.cls-16{fill:url(#_ÂÁ_Ï_ÌÌ_È_ËÂÌÚ_20);}.cls-17{fill:#b84b81;}.cls-18{fill:#85deda;}</style><radialGradient id="_ÂÁ_Ï_ÌÌ_È_ËÂÌÚ_14" cx="1489.31" cy="254.04" r="38.64" gradientTransform="matrix(-1.03, -0.48, -0.48, 1.03, 1722.8, 694.94)" gradientUnits="userSpaceOnUse"><stop offset="0" stop-color="#02689b"/><stop offset="1"/></radialGradient><radialGradient id="_ÂÁ_Ï_ÌÌ_È_ËÂÌÚ_14-2" cx="1385.07" cy="440.68" r="30.63" gradientTransform="matrix(0, -1.14, -0.56, 0, 426.36, 1857.8)" xlink:href="#_ÂÁ_Ï_ÌÌ_È_ËÂÌÚ_14"/><radialGradient id="_ÂÁ_Ï_ÌÌ_È_ËÂÌÚ_143" cx="1839.02" cy="421.22" r="17.95" gradientTransform="matrix(0, -0.61, -0.56, 0, 502.92, 1396.9)" gradientUnits="userSpaceOnUse"><stop offset="0" stop-color="#27a6fc"/><stop offset="0.03" stop-color="#259ff1"/><stop offset="0.18" stop-color="#1c75b2"/><stop offset="0.34" stop-color="#13517c"/><stop offset="0.49" stop-color="#0c344f"/><stop offset="0.64" stop-color="#071d2d"/><stop offset="0.77" stop-color="#030d14"/><stop offset="0.9" stop-color="#010305"/><stop offset="1"/></radialGradient><radialGradient id="_ÂÁ_Ï_ÌÌ_È_ËÂÌÚ_104" cx="1837.54" cy="454.65" r="12.83" gradientTransform="matrix(0, -0.61, -0.56, 0, 520.05, 1414.81)" gradientUnits="userSpaceOnUse"><stop offset="0" stop-color="#ff2c77"/><stop offset="0.03" stop-color="#f12a70"/><stop offset="0.19" stop-color="#b21f53"/><stop offset="0.35" stop-color="#7c153a"/><stop offset="0.5" stop-color="#4f0e25"/><stop offset="0.64" stop-color="#2d0815"/><stop offset="0.77" stop-color="#140309"/><stop offset="0.9" stop-color="#050102"/><stop offset="1"/></radialGradient><radialGradient id="_ÂÁ_Ï_ÌÌ_È_ËÂÌÚ_14-3" cx="1517.43" cy="220.6" r="27.58" gradientTransform="matrix(-0.78, -0.83, -0.83, 0.78, 1395.42, 1294.66)" xlink:href="#_ÂÁ_Ï_ÌÌ_È_ËÂÌÚ_14"/><radialGradient id="_ÂÁ_Ï_ÌÌ_È_ËÂÌÚ_20" cx="1209.78" cy="-97.74" r="41.88" gradientTransform="matrix(-1.58, 0, 0, 1.34, 2086.22, 229.05)" gradientUnits="userSpaceOnUse"><stop offset="0" stop-color="#f94081"/><stop offset="1"/></radialGradient></defs><title>Pic1</title><g class="cls-1"><g id="Layer_2" data-name="Layer 2"><g id="Layer_1-2" data-name="Layer 1"><path class="cls-2" d="M259,1.14h0c10.48-2.67,21.87,7.17,21.86,16.53l-12.45,295.7c-.38,8.1-12.35,16.67-19.9,16.67l-3.2-1.51,2.64,1Z"/><path class="cls-3" d="M256.53,322.31,269.62,8.41A8.07,8.07,0,0,0,257.87.9l-204.14,105a8.1,8.1,0,0,0-4.36,6.6L38.26,266.4a8.07,8.07,0,0,0,5.93,8.36l202.17,55A8.07,8.07,0,0,0,256.53,322.31Z"/><polygon class="cls-4" points="241.02 317.97 42.52 264.97 53.77 110.72 257.65 8.84 241.02 317.97"/><polygon class="cls-5" points="241.02 317.97 46.37 266.59 57.62 112.34 257.46 12.48 241.02 317.97"/><polygon class="cls-6" points="250.02 26.97 137.72 83.88 127.92 279.48 234.02 307.47 250.02 26.97"/><polygon class="cls-7" points="129.49 87.9 62.2 120.08 58.05 176.26 124.75 169.72 129.49 87.9"/><polygon class="cls-7" points="118.59 276.54 52.24 262.35 57.44 180.81 124.75 174.43 118.59 276.54"/><polygon class="cls-8" points="110.03 272.37 43.68 258.18 48.88 176.65 116.2 170.26 110.03 272.37"/><polygon class="cls-9" points="257.46 12.48 256.39 32.19 56.88 122.43 57.62 112.34 257.46 12.48"/><polygon class="cls-8" points="124.15 85.92 56.86 118.11 53.02 172.47 119.41 167.75 124.15 85.92"/><polygon class="cls-10" points="247.27 20.22 247.27 33.47 166.27 70.72 166.27 60.47 247.27 20.22"/><path class="cls-10" d="M210.33,282l-.22,10.14L205.67,291l0-1.89,3.13.79.17-8.16Z"/><path class="cls-10" d="M205,285.86a5.9,5.9,0,0,1-.52,2.42,3.35,3.35,0,0,1-1.27,1.52,2.15,2.15,0,0,1-1.72.23,3.49,3.49,0,0,1-1.68-1.11,6.29,6.29,0,0,1-1.2-2.11,7.07,7.07,0,0,1-.41-2.59,5.71,5.71,0,0,1,.52-2.35,3.49,3.49,0,0,1,1.29-1.54,2.16,2.16,0,0,1,1.71-.31,3.16,3.16,0,0,1,1.68,1.06,6.29,6.29,0,0,1,1.2,2.15A7.81,7.81,0,0,1,205,285.86Zm-1.36-.33a5.08,5.08,0,0,0-.24-1.67,3.62,3.62,0,0,0-.71-1.32,1.93,1.93,0,0,0-1-.66,1.38,1.38,0,0,0-1.05.18,2.18,2.18,0,0,0-.76,1,4.11,4.11,0,0,0-.31,1.52,5.18,5.18,0,0,0,.23,1.63,3.68,3.68,0,0,0,.7,1.3,2,2,0,0,0,1,.68,1.34,1.34,0,0,0,1.06-.16,2,2,0,0,0,.78-.95A4,4,0,0,0,203.65,285.53Z"/><path class="cls-10" d="M191.67,287.39l1.62-3.05a3.35,3.35,0,0,1-.76-1.39,5.65,5.65,0,0,1-.22-1.69,3.05,3.05,0,0,1,.74-2.18,2,2,0,0,1,1.94-.44l2,.44-.21,9.62-1.32-.34.07-3-.87-.21-1.47,2.67Zm4-6.77-.94-.21c-.4-.09-.67,0-.81.29a1.94,1.94,0,0,0-.23.93,2.16,2.16,0,0,0,.22,1,1.05,1.05,0,0,0,.76.63l.94.22Z"/><path class="cls-10" d="M190.8,277.73l-.22,9.38-4.66-1.19,0-1.75,3.35.83.05-2-2.86-.69,0-1.75,2.86.66,0-2-3.23-.72,0-1.75Z"/><path class="cls-10" d="M178,274.61l3.3,7.21,3.53-5.76h0l-.23,9.51-1.27-.32.1-4.06-2.18,3.41h0l-2.07-4.68-.1,4.25-1.31-.33.22-9.23Z"/><path class="cls-10" d="M173.27,274l-.22,8.69-1.31-.33.21-8.64Z"/><path class="cls-10" d="M168.22,272.93l2,.42-.22,8.58-1.31-.33.07-2.69-.94-.22a2.63,2.63,0,0,1-1.34-.74,3.12,3.12,0,0,1-.72-1.26,4.48,4.48,0,0,1-.19-1.46,2.57,2.57,0,0,1,.72-1.93A2.09,2.09,0,0,1,168.22,272.93Zm-.33,4.13.93.21.06-2.57-.94-.2a.67.67,0,0,0-.81.25,1.66,1.66,0,0,0-.23.82,1.7,1.7,0,0,0,.08.57,1.47,1.47,0,0,0,.32.57A1,1,0,0,0,167.89,277.06Z"/><path class="cls-10" d="M160.88,273.41l-.47-1.34a2.94,2.94,0,0,1,1-.38,3.11,3.11,0,0,1,1.24,0,2.59,2.59,0,0,1,1.49,1,3,3,0,0,1,.52,1.85,2.17,2.17,0,0,1-.31,1.17,1.72,1.72,0,0,1-.67.6,5.79,5.79,0,0,1-1,.32c-.65.17-1,.47-1,.89a1.06,1.06,0,0,0,.29.79,1.58,1.58,0,0,0,.72.39,1.82,1.82,0,0,0,.8,0,2.12,2.12,0,0,0,.8-.33l.55,1.42a2.71,2.71,0,0,1-1.12.41,3.2,3.2,0,0,1-1.19-.07,2.84,2.84,0,0,1-2-1.67,3.1,3.1,0,0,1-.23-1.24,2.63,2.63,0,0,1,.25-1.16,1.62,1.62,0,0,1,.58-.63,2.92,2.92,0,0,1,.82-.3,3.34,3.34,0,0,0,.94-.37.69.69,0,0,0,.36-.62.94.94,0,0,0-.22-.69,1.15,1.15,0,0,0-.67-.36A2.48,2.48,0,0,0,160.88,273.41Z"/><path class="cls-10" d="M157.9,275.94l.14-5.11,1.31.27-.14,5.17a3,3,0,0,1-.4,1.5,2,2,0,0,1-1,.86,2.26,2.26,0,0,1-1.37.06,3.17,3.17,0,0,1-1.35-.72,3.81,3.81,0,0,1-1-1.31,3.59,3.59,0,0,1-.32-1.62l.14-5,1.29.27-.14,5a1.83,1.83,0,0,0,.17.78,2.07,2.07,0,0,0,.5.68,1.58,1.58,0,0,0,.7.39,1.15,1.15,0,0,0,.69-.06,1.21,1.21,0,0,0,.52-.46A1.34,1.34,0,0,0,157.9,275.94Z"/><path class="cls-10" d="M145.55,268l3.3,6.26,3.53-4.9h0l-.23,8.2-1.27-.3.1-3.5-2.18,2.89h0l-2.07-4.07-.11,3.65-1.31-.31.23-7.92Z"/><polygon class="cls-10" points="141.84 181.35 228.92 175.63 229.02 174.2 141.9 180.26 141.84 181.35"/><polygon class="cls-10" points="140.84 199.17 227.36 199 227.45 197.57 140.91 198.08 140.84 199.17"/><polygon class="cls-10" points="141.45 188.35 228.31 184.81 228.4 183.38 141.51 187.26 141.45 188.35"/><polygon class="cls-10" points="203.86 181.88 228.59 180.58 228.69 179.15 203.95 180.54 203.86 181.88"/><polygon class="cls-10" points="220.62 195.51 227.6 195.43 227.69 193.99 220.71 194.1 220.62 195.51"/><polygon class="cls-10" points="168.19 196.26 175.17 196.18 175.25 194.95 168.26 195.06 168.19 196.26"/><polygon class="cls-10" points="164.25 183.94 203.07 181.92 203.16 180.58 164.32 182.76 164.25 183.94"/><polygon class="cls-10" points="166.89 193.43 205.58 192.63 205.67 191.28 166.97 192.24 166.89 193.43"/><polygon class="cls-10" points="179.01 196 217.66 195.54 217.75 194.15 179.09 194.75 179.01 196"/><polygon class="cls-10" points="141.31 190.78 180.05 189.54 180.13 188.3 141.38 189.69 141.31 190.78"/><polygon class="cls-10" points="140.68 202.2 227.09 202.98 227.19 201.55 140.74 201.11 140.68 202.2"/><polygon class="cls-10" points="139.68 220.02 225.52 226.35 225.62 224.92 139.74 218.93 139.68 220.02"/><polygon class="cls-10" points="140.28 209.2 226.47 212.16 226.57 210.73 140.34 208.11 140.28 209.2"/><polygon class="cls-10" points="202.22 207.37 226.76 207.93 226.85 206.5 202.3 206.04 202.22 207.37"/><polygon class="cls-10" points="218.83 222.33 225.76 222.77 225.86 221.34 218.93 220.92 218.83 222.33"/><polygon class="cls-10" points="166.81 219.15 173.74 219.59 173.82 218.37 166.89 217.95 166.81 219.15"/><polygon class="cls-10" points="162.91 206.48 201.43 207.35 201.52 206.02 162.99 205.3 162.91 206.48"/><polygon class="cls-10" points="165.53 216.21 203.92 218.31 204 216.96 165.6 215.01 165.53 216.21"/><polygon class="cls-10" points="177.55 219.7 215.9 222.14 216 220.75 177.63 218.45 177.55 219.7"/><polygon class="cls-10" points="140.15 211.63 178.58 213.29 178.66 212.05 140.21 210.54 140.15 211.63"/><circle class="cls-11" cx="62.16" cy="242.41" r="44.02" transform="translate(-89.73 43.52) rotate(-22.99)"/><ellipse class="cls-12" cx="177.71" cy="279.96" rx="17.28" ry="34.9" transform="translate(-124.43 416.6) rotate(-81.93)"/><ellipse class="cls-13" cx="265.31" cy="280.97" rx="10.13" ry="10.89" transform="translate(-50.12 504.21) rotate(-81.93)"/><ellipse class="cls-14" cx="263.55" cy="299.77" rx="7.24" ry="7.79" transform="translate(-70.25 518.62) rotate(-81.93)"/><circle class="cls-15" cx="31.43" cy="203.25" r="31.43" transform="translate(-134.51 81.75) rotate(-45)"/><polygon class="cls-10" points="242.19 48.47 143.19 91.82 139.68 169.19 235.64 158.99 242.19 48.47"/><rect class="cls-7" x="132.89" y="170.3" width="109.44" height="1" transform="translate(-14.83 17.86) rotate(-5.24)"/><ellipse class="cls-16" cx="171.12" cy="98.15" rx="66.3" ry="56.07" transform="translate(-15.7 34.79) rotate(-11.1)"/><path class="cls-10" d="M238.56,94.66a1.73,1.73,0,1,0,1.79-2A1.93,1.93,0,0,0,238.56,94.66Z"/><path class="cls-17" d="M261.4,300a2.19,2.19,0,1,0,2.23-2.59A2.45,2.45,0,0,0,261.4,300Z"/><path class="cls-18" d="M262.65,280.84a2.19,2.19,0,1,0,2.23-2.59A2.45,2.45,0,0,0,262.65,280.84Z"/><rect class="cls-7" x="28.25" y="186.65" width="198.19" height="1" transform="translate(-66.91 303.38) rotate(-86.66)"/></g></g></g></svg>